<svg id="Capa_1" data-name="Capa 1" xmlns="http://www.w3.org/2000/svg" viewBox="0 0 1058.4 1057.29"><defs><style>.cls-1{fill:none;stroke:#000;stroke-miterlimit:10;stroke-width:55px;}</style></defs><text x="-6669.11" y="-6671.35"/><circle class="cls-1" cx="529.75" cy="528.65" r="501.15"/><path d="M6966.52,7042.39q-31.91-12.87-49.87-35.79a82.3,82.3,0,0,1-18-52.15q0-29.49,16.89-52.28t47.05-35.66q30.16-12.87,67.7-12.87a172.39,172.39,0,0,1,54.83,8.45q25.34,8.44,43,23.73t23.86,35.12l-63.54,13.4a41,41,0,0,0-11.39-16.75,53.4,53.4,0,0,0-19.44-10.86,81.11,81.11,0,0,0-25.2-3.75q-18.51,0-33,6.43t-22.66,18.1a45.73,45.73,0,0,0-8.17,26.94,41.55,41.55,0,0,0,9.25,26.81q9.24,11.53,25.6,18t37,6.43a95.71,95.71,0,0,0,30.16-4.56,63.11,63.11,0,0,0,23.19-13.13,38.77,38.77,0,0,0,12.07-20.11l64.34,11.53q-4.81,22.24-23.19,39.54t-46.65,26.81q-28.29,9.53-61.53,9.52Q6998.43,7055.26,6966.52,7042.39Z" transform="translate(-6669.11 -6671.35)"/><path d="M7340.26,6907.8h-75.07v-49.33H7485v49.33H7410v142.64h-69.71Z" transform="translate(-6669.11 -6671.35)"/><path d="M7089.45,7304.86a55.25,55.25,0,0,1-17-11.39,136.41,136.41,0,0,1-13.94-16.63l-12.06-20.11a34.59,34.59,0,0,0-13.68-12.46,40.8,40.8,0,0,0-18.5-4.16h-41v63.81h-70V7112h161.4q23.87,0,42.23,7.78t28.42,21.85a53.33,53.33,0,0,1,10.05,31.77,50.5,50.5,0,0,1-6.57,25.47,54.89,54.89,0,0,1-18.5,19.17,76.8,76.8,0,0,1-27.48,10.59,27.2,27.2,0,0,1,8.58,5.5,46.63,46.63,0,0,1,7.51,8.71l13.67,20.91a22.94,22.94,0,0,0,6.17,6,13.43,13.43,0,0,0,7.5,2.28,18.85,18.85,0,0,0,7.65-1.88,19.38,19.38,0,0,0,6.56-4.56l11.8,28.15q-8,6.7-21.85,11.13a88.86,88.86,0,0,1-27.21,4.42Q7099.5,7309.28,7089.45,7304.86Zm-47.86-104.16a48,48,0,0,0,17.16-2.95,29.44,29.44,0,0,0,12.33-8.31,18.49,18.49,0,0,0,4.56-12.34,19,19,0,0,0-4.29-12.46,28.14,28.14,0,0,0-11.93-8.18,48.67,48.67,0,0,0-17.56-2.95h-68.64v47.19Z" transform="translate(-6669.11 -6671.35)"/><path d="M7264.12,7112h70v140.76h116.63v51.21h-186.6Z" transform="translate(-6669.11 -6671.35)"/><path d="M6942.66,7453.65h163.55v43.16H6942.66Z" transform="translate(-6669.11 -6671.35)"/><path d="M7259.82,7505.39l130.31-94.64H7262.51l1.07-45.31h206.17l-1.07,53.09-130,93.57h132.71v45.31H7259.82Z" transform="translate(-6669.11 -6671.35)"/></svg>